# Blender v2.79 (sub 0) OBJ File: ''
# www.blender.org
mtllib bowl.mtl
o instance_0.002_ID21
v 0.240005 0.158750 -0.064309
v 0.126435 0.006350 -0.072998
v 0.141021 0.006350 -0.037786
v 0.215183 0.158750 -0.124236
v 0.103234 0.006350 -0.103234
v 0.175696 0.158750 -0.175696
v -0.141021 0.006350 0.037786
v -0.141021 0.006350 -0.037786
v -0.145995 0.006350 0.000000
v -0.126436 0.006350 0.072998
v -0.126436 0.006350 -0.072998
v -0.103234 0.006350 0.103234
v -0.103234 0.006350 -0.103234
v -0.072998 0.006350 -0.126435
v -0.072998 0.006350 0.126436
v -0.037786 0.006350 0.141021
v -0.037786 0.006350 -0.141021
v 0.000000 0.006350 -0.145995
v 0.000000 0.006350 0.145995
v 0.037786 0.006350 0.141021
v 0.037786 0.006350 -0.141021
v 0.072998 0.006350 0.126436
v 0.072998 0.006350 -0.126435
v 0.103234 0.006350 0.103234
v 0.103234 0.006350 -0.103234
v 0.126435 0.006350 0.072998
v 0.126435 0.006350 -0.072998
v 0.141021 0.006350 0.037786
v 0.141021 0.006350 -0.037786
v 0.145995 0.006350 0.000000
v 0.145995 0.006350 0.000000
v 0.248472 0.158750 0.000000
v 0.072998 0.006350 -0.126435
v 0.124236 0.158750 -0.215183
v 0.000000 0.158750 0.248472
v 0.037786 0.006350 0.141021
v 0.000000 0.006350 0.145995
v 0.064309 0.158750 0.240006
v 0.072998 0.006350 0.126436
v 0.124236 0.158750 0.215183
v 0.103234 0.006350 0.103234
v 0.175696 0.158750 0.175696
v 0.215183 0.158750 0.124236
v 0.126435 0.006350 0.072998
v 0.240005 0.158750 0.064309
v 0.141021 0.006350 0.037786
v 0.037786 0.006350 -0.141021
v 0.064309 0.158750 -0.240005
v 0.000000 0.006350 -0.145995
v 0.000000 0.158750 -0.248472
v -0.037786 0.006350 -0.141021
v -0.064309 0.158750 -0.240005
v -0.072998 0.006350 -0.126435
v -0.124236 0.158750 -0.215183
v -0.103234 0.006350 -0.103234
v -0.175696 0.158750 -0.175696
v -0.215183 0.158750 -0.124236
v -0.126436 0.006350 -0.072998
v -0.240006 0.158750 -0.064309
v -0.141021 0.006350 -0.037786
v -0.248472 0.158750 0.000000
v -0.145995 0.006350 0.000000
v -0.141021 0.006350 0.037786
v -0.240006 0.158750 0.064309
v -0.126436 0.006350 0.072998
v -0.215183 0.158750 0.124236
v -0.103234 0.006350 0.103234
v -0.175696 0.158750 0.175696
v -0.072998 0.006350 0.126436
v -0.124236 0.158750 0.215183
v -0.037786 0.006350 0.141021
v -0.064309 0.158750 0.240006
vn 0.0000 1.0000 0.0000
vn -0.8015 0.5580 0.2148
vn -0.7186 0.5580 0.4149
vn -0.5868 0.5580 0.5868
vn -0.8298 0.5580 0.0000
vn -0.4149 0.5580 0.7186
vn 0.0000 0.5580 -0.8298
vn -0.2148 0.5580 -0.8015
vn -0.4149 0.5580 -0.7186
vn -0.5868 0.5580 -0.5868
vn -0.7186 0.5580 -0.4149
vn -0.8015 0.5580 -0.2148
vn -0.2148 0.5580 0.8015
vn 0.0000 0.5580 0.8298
vn 0.2148 0.5580 0.8015
vn 0.4149 0.5580 0.7186
vn 0.5868 0.5580 0.5868
vn 0.7186 0.5580 0.4149
vn 0.8015 0.5580 0.2148
vn 0.8298 0.5580 0.0000
vn 0.8015 0.5580 -0.2148
vn 0.7186 0.5580 -0.4149
vn 0.5868 0.5580 -0.5868
vn 0.4149 0.5580 -0.7186
vn 0.2148 0.5580 -0.8015
usemtl Color_A06
s off
f 7//1 8//1 9//1
f 8//1 7//1 10//1
f 8//1 10//1 11//1
f 11//1 10//1 12//1
f 11//1 12//1 13//1
f 13//1 12//1 14//1
f 14//1 12//1 15//1
f 14//1 15//1 16//1
f 14//1 16//1 17//1
f 17//1 16//1 18//1
f 18//1 16//1 19//1
f 18//1 19//1 20//1
f 18//1 20//1 21//1
f 21//1 20//1 22//1
f 21//1 22//1 23//1
f 23//1 22//1 24//1
f 23//1 24//1 25//1
f 25//1 24//1 26//1
f 25//1 26//1 27//1
f 27//1 26//1 28//1
f 27//1 28//1 29//1
f 29//1 28//1 30//1
s 1
f 1//2 2//3 3//2
f 2//3 1//2 4//3
f 4//3 5//4 2//3
f 5//4 4//3 6//4
f 1//2 31//5 32//5
f 31//5 1//2 3//2
f 6//4 33//6 5//4
f 33//6 6//4 34//6
f 35//7 36//8 37//7
f 36//8 35//7 38//8
f 38//8 39//9 36//8
f 39//9 38//8 40//9
f 40//9 41//10 39//9
f 41//10 40//9 42//10
f 43//11 41//10 42//10
f 41//10 43//11 44//11
f 45//12 44//11 43//11
f 44//11 45//12 46//12
f 32//5 46//12 45//12
f 46//12 32//5 31//5
f 34//6 47//13 33//6
f 47//13 34//6 48//13
f 48//13 49//14 47//13
f 49//14 48//13 50//14
f 50//14 51//15 49//14
f 51//15 50//14 52//15
f 52//15 53//16 51//15
f 53//16 52//15 54//16
f 54//16 55//17 53//16
f 55//17 54//16 56//17
f 55//17 57//18 58//18
f 57//18 55//17 56//17
f 58//18 59//19 60//19
f 59//19 58//18 57//18
f 60//19 61//20 62//20
f 61//20 60//19 59//19
f 63//21 61//20 64//21
f 61//20 63//21 62//20
f 65//22 64//21 66//22
f 64//21 65//22 63//21
f 67//23 66//22 68//23
f 66//22 67//23 65//22
f 68//23 69//24 67//23
f 69//24 68//23 70//24
f 70//24 71//25 69//24
f 71//25 70//24 72//25
f 72//25 37//7 71//25
f 37//7 72//25 35//7
o instance_0.001_ID13
v -0.147207 0.006350 -0.039444
v -0.141021 0.006350 -0.037786
v -0.145995 0.006350 0.000000
v -0.131982 0.006350 -0.076200
v -0.126436 0.006350 -0.072998
v -0.107763 0.006350 -0.107763
v -0.103234 0.006350 -0.103234
v -0.076200 0.006350 -0.131982
v -0.072998 0.006350 -0.126435
v -0.039444 0.006350 -0.147207
v -0.037786 0.006350 -0.141021
v 0.000000 0.006350 -0.152400
v 0.000000 0.006350 -0.145995
v 0.039444 0.006350 -0.147207
v 0.037786 0.006350 -0.141021
v 0.072998 0.006350 -0.126435
v 0.076200 0.006350 -0.131982
v 0.103234 0.006350 -0.103234
v 0.107763 0.006350 -0.107763
v 0.126435 0.006350 -0.072998
v 0.131982 0.006350 -0.076200
v 0.141021 0.006350 -0.037786
v 0.147207 0.006350 -0.039444
v 0.145995 0.006350 0.000000
v 0.147207 0.006350 0.039444
v 0.152400 0.006350 0.000000
v -0.147207 0.006350 0.039444
v -0.152400 0.006350 0.000000
v -0.141021 0.006350 0.037786
v -0.131982 0.006350 0.076200
v -0.126436 0.006350 0.072998
v -0.107763 0.006350 0.107763
v -0.103234 0.006350 0.103234
v -0.076200 0.006350 0.131982
v -0.072998 0.006350 0.126436
v -0.039444 0.006350 0.147207
v -0.037786 0.006350 0.141021
v 0.000000 0.006350 0.152400
v 0.000000 0.006350 0.145995
v 0.037786 0.006350 0.141021
v 0.039444 0.006350 0.147207
v 0.072998 0.006350 0.126436
v 0.076200 0.006350 0.131982
v 0.103234 0.006350 0.103234
v 0.107763 0.006350 0.107763
v 0.126435 0.006350 0.072998
v 0.131982 0.006350 0.076200
v 0.141021 0.006350 0.037786
v -0.147207 0.006350 0.039444
v -0.147207 0.006350 -0.039444
v -0.152400 0.006350 0.000000
v -0.145995 0.006350 0.000000
v -0.141021 0.006350 0.037786
v -0.131982 0.006350 0.076200
v -0.126436 0.006350 0.072998
v -0.107763 0.006350 0.107763
v -0.103234 0.006350 0.103234
v -0.076200 0.006350 0.131982
v -0.072998 0.006350 0.126436
v -0.039444 0.006350 0.147207
v -0.037786 0.006350 0.141021
v 0.000000 0.006350 0.152400
v 0.000000 0.006350 0.145995
v 0.039444 0.006350 0.147207
v 0.037786 0.006350 0.141021
v 0.072998 0.006350 0.126436
v 0.076200 0.006350 0.131982
v 0.103234 0.006350 0.103234
v 0.107763 0.006350 0.107763
v 0.126435 0.006350 0.072998
v 0.131982 0.006350 0.076200
v 0.141021 0.006350 0.037786
v 0.147207 0.006350 0.039444
v 0.145995 0.006350 0.000000
v 0.152400 0.006350 0.000000
v -0.141021 0.006350 -0.037786
v -0.131982 0.006350 -0.076200
v -0.126436 0.006350 -0.072998
v -0.107763 0.006350 -0.107763
v -0.103234 0.006350 -0.103234
v -0.076200 0.006350 -0.131982
v -0.072998 0.006350 -0.126435
v -0.039444 0.006350 -0.147207
v -0.037786 0.006350 -0.141021
v 0.000000 0.006350 -0.152400
v 0.000000 0.006350 -0.145995
v 0.039444 0.006350 -0.147207
v 0.037786 0.006350 -0.141021
v 0.072998 0.006350 -0.126435
v 0.076200 0.006350 -0.131982
v 0.103234 0.006350 -0.103234
v 0.107763 0.006350 -0.107763
v 0.126435 0.006350 -0.072998
v 0.131982 0.006350 -0.076200
v 0.141021 0.006350 -0.037786
v 0.147207 0.006350 -0.039444
vn 0.0000 -1.0000 0.0000
vn 0.0000 1.0000 0.0000
usemtl material
s off
f 73//26 74//26 75//26
f 74//26 73//26 76//26
f 74//26 76//26 77//26
f 77//26 76//26 78//26
f 77//26 78//26 79//26
f 79//26 78//26 80//26
f 79//26 80//26 81//26
f 81//26 80//26 82//26
f 81//26 82//26 83//26
f 83//26 82//26 84//26
f 83//26 84//26 85//26
f 85//26 84//26 86//26
f 85//26 86//26 87//26
f 87//26 86//26 88//26
f 88//26 86//26 89//26
f 88//26 89//26 90//26
f 90//26 89//26 91//26
f 90//26 91//26 92//26
f 92//26 91//26 93//26
f 92//26 93//26 94//26
f 94//26 93//26 95//26
f 94//26 95//26 96//26
f 96//26 95//26 97//26
f 97//26 95//26 98//26
f 73//26 99//26 100//26
f 99//26 73//26 75//26
f 99//26 75//26 101//26
f 99//26 101//26 102//26
f 102//26 101//26 103//26
f 102//26 103//26 104//26
f 104//26 103//26 105//26
f 104//26 105//26 106//26
f 106//26 105//26 107//26
f 106//26 107//26 108//26
f 108//26 107//26 109//26
f 108//26 109//26 110//26
f 110//26 109//26 111//26
f 110//26 111//26 112//26
f 110//26 112//26 113//26
f 113//26 112//26 114//26
f 113//26 114//26 115//26
f 115//26 114//26 116//26
f 115//26 116//26 117//26
f 117//26 116//26 118//26
f 117//26 118//26 119//26
f 119//26 118//26 120//26
f 119//26 120//26 97//26
f 97//26 120//26 96//26
f 121//27 122//27 123//27
f 122//27 121//27 124//27
f 124//27 121//27 125//27
f 125//27 121//27 126//27
f 125//27 126//27 127//27
f 127//27 126//27 128//27
f 127//27 128//27 129//27
f 129//27 128//27 130//27
f 129//27 130//27 131//27
f 131//27 130//27 132//27
f 131//27 132//27 133//27
f 133//27 132//27 134//27
f 133//27 134//27 135//27
f 135//27 134//27 136//27
f 135//27 136//27 137//27
f 137//27 136//27 138//27
f 138//27 136//27 139//27
f 138//27 139//27 140//27
f 140//27 139//27 141//27
f 140//27 141//27 142//27
f 142//27 141//27 143//27
f 142//27 143//27 144//27
f 144//27 143//27 145//27
f 144//27 145//27 146//27
f 146//27 145//27 147//27
f 122//27 148//27 149//27
f 148//27 122//27 124//27
f 149//27 148//27 150//27
f 149//27 150//27 151//27
f 151//27 150//27 152//27
f 151//27 152//27 153//27
f 153//27 152//27 154//27
f 153//27 154//27 155//27
f 155//27 154//27 156//27
f 155//27 156//27 157//27
f 157//27 156//27 158//27
f 157//27 158//27 159//27
f 159//27 158//27 160//27
f 159//27 160//27 161//27
f 159//27 161//27 162//27
f 162//27 161//27 163//27
f 162//27 163//27 164//27
f 164//27 163//27 165//27
f 164//27 165//27 166//27
f 166//27 165//27 167//27
f 166//27 167//27 168//27
f 168//27 167//27 146//27
f 168//27 146//27 147//27
o instance_0_ID5
v 0.000000 0.006350 -0.152400
v 0.039444 0.000000 -0.147207
v 0.000000 0.000000 -0.152400
v 0.039444 0.006350 -0.147207
v 0.000000 0.158750 -0.254877
v 0.039444 0.006350 -0.147207
v 0.000000 0.006350 -0.152400
v 0.065967 0.158750 -0.246192
v 0.076200 0.000000 -0.131982
v 0.076200 0.006350 -0.131982
v -0.147207 0.000000 -0.039444
v -0.147207 0.000000 0.039444
v -0.152400 0.000000 0.000000
v -0.131982 0.000000 0.076200
v -0.131982 0.000000 -0.076200
v -0.107763 0.000000 0.107763
v -0.107763 0.000000 -0.107763
v -0.076200 0.000000 0.131982
v -0.076200 0.000000 -0.131982
v -0.039444 0.000000 0.147207
v -0.039444 0.000000 -0.147207
v 0.000000 0.000000 0.152400
v 0.000000 0.000000 -0.152400
v 0.039444 0.000000 -0.147207
v 0.039444 0.000000 0.147207
v 0.076200 0.000000 0.131982
v 0.076200 0.000000 -0.131982
v 0.107763 0.000000 0.107763
v 0.107763 0.000000 -0.107763
v 0.131982 0.000000 0.076200
v 0.131982 0.000000 -0.076200
v 0.147207 0.000000 0.039444
v 0.147207 0.000000 -0.039444
v 0.152400 0.000000 0.000000
v -0.039444 0.006350 -0.147207
v -0.039444 0.000000 -0.147207
v -0.065967 0.158750 -0.246192
v -0.039444 0.006350 -0.147207
v -0.246192 0.158750 0.065967
v -0.248472 0.158750 0.000000
v -0.254877 0.158750 0.000000
v -0.240006 0.158750 0.064309
v -0.220730 0.158750 0.127438
v -0.215183 0.158750 0.124236
v -0.180225 0.158750 0.180225
v -0.175696 0.158750 0.175696
v -0.127438 0.158750 0.220730
v -0.124236 0.158750 0.215183
v -0.065967 0.158750 0.246192
v -0.064309 0.158750 0.240006
v 0.000000 0.158750 0.254877
v 0.000000 0.158750 0.248472
v 0.064309 0.158750 0.240006
v 0.065967 0.158750 0.246192
v 0.124236 0.158750 0.215183
v 0.127438 0.158750 0.220730
v 0.175696 0.158750 0.175696
v 0.180225 0.158750 0.180225
v 0.215183 0.158750 0.124236
v 0.220730 0.158750 0.127438
v 0.240005 0.158750 0.064309
v 0.246192 0.158750 0.065967
v 0.248472 0.158750 0.000000
v 0.254877 0.158750 0.000000
v -0.246192 0.158750 -0.065967
v -0.240006 0.158750 -0.064309
v -0.220730 0.158750 -0.127438
v -0.215183 0.158750 -0.124236
v -0.180225 0.158750 -0.180225
v -0.175696 0.158750 -0.175696
v -0.127438 0.158750 -0.220730
v -0.124236 0.158750 -0.215183
v -0.065967 0.158750 -0.246192
v -0.064309 0.158750 -0.240005
v 0.000000 0.158750 -0.254877
v 0.000000 0.158750 -0.248472
v 0.064309 0.158750 -0.240005
v 0.065967 0.158750 -0.246192
v 0.124236 0.158750 -0.215183
v 0.127438 0.158750 -0.220730
v 0.175696 0.158750 -0.175696
v 0.180225 0.158750 -0.180225
v 0.215183 0.158750 -0.124236
v 0.220730 0.158750 -0.127438
v 0.240005 0.158750 -0.064309
v 0.246192 0.158750 -0.065967
v 0.076200 0.006350 -0.131982
v 0.127438 0.158750 -0.220730
v 0.107763 0.000000 -0.107763
v 0.107763 0.006350 -0.107763
v 0.131982 0.006350 -0.076200
v 0.131982 0.000000 -0.076200
v 0.147207 0.006350 -0.039444
v 0.147207 0.000000 -0.039444
v 0.152400 0.006350 0.000000
v 0.152400 0.000000 0.000000
v 0.147207 0.006350 0.039444
v 0.147207 0.000000 0.039444
v 0.131982 0.006350 0.076200
v 0.131982 0.000000 0.076200
v 0.107763 0.006350 0.107763
v 0.107763 0.000000 0.107763
v 0.076200 0.000000 0.131982
v 0.076200 0.006350 0.131982
v 0.039444 0.000000 0.147207
v 0.039444 0.006350 0.147207
v 0.000000 0.000000 0.152400
v 0.000000 0.006350 0.152400
v -0.039444 0.000000 0.147207
v -0.039444 0.006350 0.147207
v -0.076200 0.000000 0.131982
v -0.076200 0.006350 0.131982
v -0.107763 0.000000 0.107763
v -0.107763 0.006350 0.107763
v -0.131982 0.006350 0.076200
v -0.131982 0.000000 0.076200
v -0.147207 0.006350 0.039444
v -0.147207 0.000000 0.039444
v -0.152400 0.006350 0.000000
v -0.152400 0.000000 0.000000
v -0.147207 0.006350 -0.039444
v -0.147207 0.000000 -0.039444
v -0.131982 0.006350 -0.076200
v -0.131982 0.000000 -0.076200
v -0.107763 0.006350 -0.107763
v -0.107763 0.000000 -0.107763
v -0.076200 0.000000 -0.131982
v -0.076200 0.006350 -0.131982
v -0.127438 0.158750 -0.220730
v -0.076200 0.006350 -0.131982
v -0.180225 0.158750 -0.180225
v -0.107763 0.006350 -0.107763
v -0.220730 0.158750 -0.127438
v -0.131982 0.006350 -0.076200
v -0.246192 0.158750 -0.065967
v -0.147207 0.006350 -0.039444
v -0.152400 0.006350 0.000000
v -0.254877 0.158750 0.000000
v -0.147207 0.006350 0.039444
v -0.246192 0.158750 0.065967
v -0.131982 0.006350 0.076200
v -0.220730 0.158750 0.127438
v -0.107763 0.006350 0.107763
v -0.180225 0.158750 0.180225
v -0.127438 0.158750 0.220730
v -0.076200 0.006350 0.131982
v -0.065967 0.158750 0.246192
v -0.039444 0.006350 0.147207
v 0.000000 0.158750 0.254877
v 0.000000 0.006350 0.152400
v 0.065967 0.158750 0.246192
v 0.039444 0.006350 0.147207
v 0.127438 0.158750 0.220730
v 0.076200 0.006350 0.131982
v 0.180225 0.158750 0.180225
v 0.107763 0.006350 0.107763
v 0.220730 0.158750 0.127438
v 0.131982 0.006350 0.076200
v 0.246192 0.158750 0.065967
v 0.147207 0.006350 0.039444
v 0.254877 0.158750 0.000000
v 0.152400 0.006350 0.000000
v 0.246192 0.158750 -0.065967
v 0.147207 0.006350 -0.039444
v 0.131982 0.006350 -0.076200
v 0.220730 0.158750 -0.127438
v 0.107763 0.006350 -0.107763
v 0.180225 0.158750 -0.180225
vn 0.0000 -1.0000 0.0000
vn 0.0000 1.0000 0.0000
vn 0.0000 0.0000 -1.0000
vn 0.2588 0.0000 -0.9659
vn 0.0000 -0.5580 -0.8298
vn 0.2148 -0.5580 -0.8015
vn 0.5000 0.0000 -0.8660
vn -0.2588 0.0000 -0.9659
vn -0.2148 -0.5580 -0.8015
vn 0.4149 -0.5580 -0.7186
vn 0.7071 0.0000 -0.7071
vn 0.8660 0.0000 -0.5000
vn 0.9659 0.0000 -0.2588
vn 1.0000 0.0000 0.0000
vn 0.9659 0.0000 0.2588
vn 0.8660 0.0000 0.5000
vn 0.7071 0.0000 0.7071
vn 0.5000 0.0000 0.8660
vn 0.2588 0.0000 0.9659
vn 0.0000 0.0000 1.0000
vn -0.2588 0.0000 0.9659
vn -0.5000 0.0000 0.8660
vn -0.7071 0.0000 0.7071
vn -0.8660 0.0000 0.5000
vn -0.9659 0.0000 0.2588
vn -1.0000 0.0000 0.0000
vn -0.9659 0.0000 -0.2588
vn -0.8660 0.0000 -0.5000
vn -0.7071 0.0000 -0.7071
vn -0.5000 0.0000 -0.8660
vn -0.4149 -0.5580 -0.7186
vn -0.5868 -0.5580 -0.5868
vn -0.7186 -0.5580 -0.4149
vn -0.8015 -0.5580 -0.2148
vn -0.8298 -0.5580 0.0000
vn -0.8015 -0.5580 0.2148
vn -0.7186 -0.5580 0.4149
vn -0.5868 -0.5580 0.5868
vn -0.4149 -0.5580 0.7186
vn -0.2148 -0.5580 0.8015
vn 0.0000 -0.5580 0.8298
vn 0.2148 -0.5580 0.8015
vn 0.4149 -0.5580 0.7186
vn 0.5868 -0.5580 0.5868
vn 0.7186 -0.5580 0.4149
vn 0.8015 -0.5580 0.2148
vn 0.8298 -0.5580 0.0000
vn 0.8015 -0.5580 -0.2148
vn 0.7186 -0.5580 -0.4149
vn 0.5868 -0.5580 -0.5868
usemtl Color_A06
s off
f 179//28 180//28 181//28
f 180//28 179//28 182//28
f 182//28 179//28 183//28
f 182//28 183//28 184//28
f 184//28 183//28 185//28
f 184//28 185//28 186//28
f 186//28 185//28 187//28
f 186//28 187//28 188//28
f 188//28 187//28 189//28
f 188//28 189//28 190//28
f 190//28 189//28 191//28
f 190//28 191//28 192//28
f 190//28 192//28 193//28
f 193//28 192//28 194//28
f 194//28 192//28 195//28
f 194//28 195//28 196//28
f 196//28 195//28 197//28
f 196//28 197//28 198//28
f 198//28 197//28 199//28
f 198//28 199//28 200//28
f 200//28 199//28 201//28
f 200//28 201//28 202//28
f 207//29 208//29 209//29
f 208//29 207//29 210//29
f 210//29 207//29 211//29
f 210//29 211//29 212//29
f 212//29 211//29 213//29
f 212//29 213//29 214//29
f 214//29 213//29 215//29
f 214//29 215//29 216//29
f 216//29 215//29 217//29
f 216//29 217//29 218//29
f 218//29 217//29 219//29
f 218//29 219//29 220//29
f 220//29 219//29 221//29
f 221//29 219//29 222//29
f 221//29 222//29 223//29
f 223//29 222//29 224//29
f 223//29 224//29 225//29
f 225//29 224//29 226//29
f 225//29 226//29 227//29
f 227//29 226//29 228//29
f 227//29 228//29 229//29
f 229//29 228//29 230//29
f 229//29 230//29 231//29
f 231//29 230//29 232//29
f 208//29 233//29 209//29
f 233//29 208//29 234//29
f 233//29 234//29 235//29
f 235//29 234//29 236//29
f 235//29 236//29 237//29
f 237//29 236//29 238//29
f 237//29 238//29 239//29
f 239//29 238//29 240//29
f 239//29 240//29 241//29
f 241//29 240//29 242//29
f 241//29 242//29 243//29
f 243//29 242//29 244//29
f 243//29 244//29 245//29
f 243//29 245//29 246//29
f 246//29 245//29 247//29
f 246//29 247//29 248//29
f 248//29 247//29 249//29
f 248//29 249//29 250//29
f 250//29 249//29 251//29
f 250//29 251//29 252//29
f 252//29 251//29 253//29
f 252//29 253//29 254//29
f 254//29 253//29 231//29
f 254//29 231//29 232//29
s 1
f 169//30 170//31 171//30
f 170//31 169//30 172//31
f 173//32 174//33 175//32
f 174//33 173//32 176//33
f 172//31 177//34 170//31
f 177//34 172//31 178//34
f 203//35 171//30 204//35
f 171//30 203//35 169//30
f 205//36 175//32 206//36
f 175//32 205//36 173//32
f 176//33 255//37 174//33
f 255//37 176//33 256//37
f 178//34 257//38 177//34
f 257//38 178//34 258//38
f 257//38 259//39 260//39
f 259//39 257//38 258//38
f 260//39 261//40 262//40
f 261//40 260//39 259//39
f 262//40 263//41 264//41
f 263//41 262//40 261//40
f 264//41 265//42 266//42
f 265//42 264//41 263//41
f 266//42 267//43 268//43
f 267//43 266//42 265//42
f 268//43 269//44 270//44
f 269//44 268//43 267//43
f 269//44 271//45 270//44
f 271//45 269//44 272//45
f 272//45 273//46 271//45
f 273//46 272//45 274//46
f 274//46 275//47 273//46
f 275//47 274//46 276//47
f 276//47 277//48 275//47
f 277//48 276//47 278//48
f 278//48 279//49 277//48
f 279//49 278//48 280//49
f 280//49 281//50 279//49
f 281//50 280//49 282//50
f 283//51 281//50 282//50
f 281//50 283//51 284//51
f 285//52 284//51 283//51
f 284//51 285//52 286//52
f 287//53 286//52 285//52
f 286//52 287//53 288//53
f 289//54 288//53 287//53
f 288//53 289//54 290//54
f 291//55 290//54 289//54
f 290//54 291//55 292//55
f 293//56 292//55 291//55
f 292//55 293//56 294//56
f 293//56 295//57 294//56
f 295//57 293//56 296//57
f 296//57 204//35 295//57
f 204//35 296//57 203//35
f 297//58 206//36 298//58
f 206//36 297//58 205//36
f 299//59 298//58 300//59
f 298//58 299//59 297//58
f 301//60 300//59 302//60
f 300//59 301//60 299//59
f 303//61 302//60 304//61
f 302//60 303//61 301//60
f 303//61 305//62 306//62
f 305//62 303//61 304//61
f 306//62 307//63 308//63
f 307//63 306//62 305//62
f 308//63 309//64 310//64
f 309//64 308//63 307//63
f 310//64 311//65 312//65
f 311//65 310//64 309//64
f 313//66 311//65 314//66
f 311//65 313//66 312//65
f 315//67 314//66 316//67
f 314//66 315//67 313//66
f 317//68 316//67 318//68
f 316//67 317//68 315//67
f 319//69 318//68 320//69
f 318//68 319//69 317//68
f 321//70 320//69 322//70
f 320//69 321//70 319//69
f 323//71 322//70 324//71
f 322//70 323//71 321//70
f 324//71 325//72 323//71
f 325//72 324//71 326//72
f 326//72 327//73 325//72
f 327//73 326//72 328//73
f 328//73 329//74 327//73
f 329//74 328//73 330//74
f 330//74 331//75 329//74
f 331//75 330//74 332//75
f 333//76 331//75 332//75
f 331//75 333//76 334//76
f 335//77 334//76 333//76
f 334//76 335//77 336//77
f 256//37 335//77 255//37
f 335//77 256//37 336//77
